<?xml version="1.0" encoding="UTF-8" standalone="no"?>
<!-- Created with Inkscape (http://www.inkscape.org/) -->

<svg
   width="210mm"
   height="297mm"
   viewBox="0 0 210 297"
   version="1.1"
   id="svg5"
   xml:space="preserve"
   inkscape:version="1.2.2 (732a01da63, 2022-12-09)"
   sodipodi:docname="drawing.svg"
   xmlns:inkscape="http://www.inkscape.org/namespaces/inkscape"
   xmlns:sodipodi="http://sodipodi.sourceforge.net/DTD/sodipodi-0.dtd"
   xmlns="http://www.w3.org/2000/svg"
   xmlns:svg="http://www.w3.org/2000/svg"><sodipodi:namedview
     id="namedview7"
     pagecolor="#ffffff"
     bordercolor="#000000"
     borderopacity="0.25"
     inkscape:showpageshadow="2"
     inkscape:pageopacity="0.0"
     inkscape:pagecheckerboard="0"
     inkscape:deskcolor="#d1d1d1"
     inkscape:document-units="mm"
     showgrid="false"
     inkscape:zoom="0.046212998"
     inkscape:cx="-8385.0868"
     inkscape:cy="-5680.2201"
     inkscape:window-width="1920"
     inkscape:window-height="991"
     inkscape:window-x="-9"
     inkscape:window-y="-9"
     inkscape:window-maximized="1"
     inkscape:current-layer="layer1" /><defs
     id="defs2" /><g
     inkscape:label="Layer 1"
     inkscape:groupmode="layer"
     id="layer1"><circle
       style="display:inline;mix-blend-mode:multiply;fill:#782121;fill-opacity:1;fill-rule:evenodd;stroke:none;stroke-width:9.99997;stroke-linecap:round;stroke-linejoin:round;stroke-opacity:1;paint-order:markers fill stroke"
       id="path744-1"
       cx="1685.2321"
       cy="1554.5361"
       r="1129.3578"
       transform="rotate(-166.26735)" /><path
       id="path744"
       style="display:inline;fill:#ffff00;fill-rule:evenodd;stroke-width:9.99993;stroke-linecap:round;stroke-linejoin:round;paint-order:markers fill stroke;opacity:1"
       d="M -1268.0247,-2992.2404 A 1082.0819,1082.0819 0 0 0 -2350.106,-1910.1581 1082.0819,1082.0819 0 0 0 -1268.0242,-828.07632 1082.0819,1082.0819 0 0 0 -185.94197,-1910.1581 1082.0819,1082.0819 0 0 0 -1268.0247,-2992.2404 Z m 92.2605,59.8217 2.435,34.1504 -42.6878,3.0442 -2.4356,-34.1509 z m -117.9964,26.5493 4.5243,28.9951 30.2033,-4.7124 5.0896,32.6197 -30.2033,4.7129 8.6713,55.5744 c 0.377,2.4163 1.4962,4.3042 3.3584,5.6638 1.8622,1.3595 4.0014,1.8508 6.4177,1.4738 l 31.4121,-4.901 4.9009,31.4115 c -15.3738,4.0489 -30.5516,7.2418 -45.5326,9.5793 -10.9538,1.7091 -20.248,-0.2231 -27.883,-5.7971 -7.635,-5.574 -12.3071,-13.838 -14.0162,-24.7918 l -9.6139,-61.6153 -14.4978,2.2618 -5.0896,-32.6197 14.4978,-2.2618 0.3085,-29.7497 z m 194.0114,13.4937 c 0.7443,-4e-4 1.4982,0.013 2.2619,0.04 l 56.2105,2.0345 c 12.2196,0.4423 21.6239,4.2905 28.2133,11.544 6.7582,7.0966 9.9161,16.7544 9.4738,28.974 l -2.034,56.21 c -0.4422,12.2196 -4.2933,21.7059 -11.5528,28.4582 -7.0906,6.5953 -16.7455,9.6717 -28.9651,9.2294 l -56.2105,-2.0345 c -12.2196,-0.4423 -21.7083,-4.2113 -28.4665,-11.3078 -6.5894,-7.2536 -9.6628,-16.99 -9.2207,-29.2096 l 2.034,-56.2105 c 0.4423,-12.2196 4.209,-21.6268 11.2996,-28.2221 6.8057,-6.3303 15.7913,-9.4989 26.9565,-9.5059 z m -72.5361,8.7437 8.8707,124.4053 -42.6878,3.0443 -6.5231,-91.4751 -18.295,1.3049 -2.3482,-32.9309 z m 210.42736,1.7224 37.3027,6.7339 0.234,12.4675 c 8.4386,-3.6125 16.7919,-5.8321 25.059,-6.6591 8.4565,-0.9584 15.4119,-0.9454 20.8669,0.039 l 10.8299,1.9549 c 10.9099,1.9695 19.0606,6.8372 24.4512,14.6028 5.3906,7.7655 7.1009,17.1032 5.1314,28.0132 l -16.9431,93.8584 -42.1158,-7.6026 15.6399,-86.6387 c 0.4344,-2.4066 -0.006,-4.5567 -1.3203,-6.4508 -1.3148,-1.894 -3.1755,-3.0583 -5.5821,-3.4928 l -8.4233,-1.5208 c -8.5034,-1.535 -18.4197,-1.6683 -29.7486,-0.4 l -16.2915,90.2483 -42.1157,-7.6027 z m -123.98356,23.0414 c -6.1233,-0.024 -9.2991,3.1206 -9.5276,9.4341 l -1.7689,48.8787 c -0.2359,6.5171 2.9045,9.8937 9.4217,10.1296 l 29.3268,1.0614 c 6.5172,0.2359 9.8938,-2.905 10.1297,-9.4222 l 1.7688,-48.8781 c 0.2359,-6.5171 -2.9045,-9.8938 -9.4216,-10.1296 l -29.3269,-1.0615 c -0.2037,-0.01 -0.4045,-0.012 -0.602,-0.012 z m -313.8599,1.8625 c 6.1015,-0.06 11.7219,1.3675 16.8609,4.2824 8.2227,4.6638 13.8096,12.3391 16.7608,23.0255 l 25.3891,91.9339 -36.5378,10.0903 -5.6121,-11.1352 c -6.0406,6.9115 -12.6645,12.6308 -19.8711,17.1581 -7.0928,4.3267 -13.3111,7.2283 -18.6541,8.7039 l -8.2502,2.2784 c -10.6863,2.9512 -20.141,2.095 -28.3636,-2.5689 -8.2227,-4.6638 -13.8095,-12.3391 -16.7608,-23.0254 l -2.9295,-10.6076 c -2.9512,-10.6864 -2.095,-20.1411 2.5688,-28.3637 4.6638,-8.2226 12.3392,-13.8095 23.0255,-16.7607 l 48.3242,-13.3455 -2.604,-9.4294 c -0.651,-2.3572 -1.9792,-4.1045 -3.9848,-5.242 -2.0055,-1.1375 -4.187,-1.3807 -6.5443,-0.7297 -10.2148,2.821 -21.3999,6.4175 -33.5545,10.789 -11.9974,4.3282 -21.7026,7.7693 -29.1155,10.3239 l -8.1375,-29.4659 c 27.8906,-11.0853 53.3865,-19.818 76.4878,-26.1979 4.0074,-1.1066 7.8417,-1.6777 11.5027,-1.7135 z m -134.6208,41.0533 54.1854,125.7737 c 4.3864,10.1817 4.8326,19.6642 1.3384,28.4479 -3.4942,8.7837 -10.3323,15.3689 -20.514,19.7553 -23.5077,10.1275 -50.3553,19.9189 -80.5434,29.374 l -12.5791,-29.1977 c 29.5661,-10.0748 51.7613,-18.3049 66.5846,-24.691 2.2459,-0.9676 3.795,-2.523 4.6472,-4.6654 0.8523,-2.1424 0.7945,-4.3361 -0.1731,-6.582 l -4.8379,-11.2298 c -13.2338,9.2517 -25.3161,16.2319 -36.2464,20.9408 l -7.8605,3.3864 c -10.1817,4.3864 -19.6647,4.8326 -28.4484,1.3384 -8.7837,-3.4942 -15.3684,-10.3318 -19.7549,-20.5135 l -19.3523,-44.9192 c -4.8379,-11.2298 -5.4671,-21.3439 -1.8877,-30.3418 3.6646,-9.2122 11.112,-16.2373 22.3418,-21.0752 z m -171.8427,30.7051 16.8041,29.8297 -37.2871,21.0049 -16.8041,-29.8297 z m 310.5511,9.373 -34.1809,9.4398 c -2.3573,0.651 -4.1045,1.9792 -5.242,3.9847 -1.1376,2.0056 -1.3807,4.1872 -0.7297,6.5443 l 0.6511,2.357 c 0.651,2.3573 1.9793,4.1046 3.9848,5.2421 2.0055,1.1375 4.187,1.3812 6.5443,0.7302 l 5.8932,-1.6279 c 8.3289,-2.3002 17.3237,-6.4755 26.9849,-12.5263 z m -164.9502,7.1753 -31.443,13.546 c -5.9892,2.5802 -7.6942,6.8653 -5.1139,12.8545 l 15.9654,37.0582 c 0.9676,2.2459 2.5225,3.795 4.6649,4.6472 2.1423,0.8523 4.3365,0.7945 6.5825,-0.1731 l 5.6152,-2.419 c 9.4329,-4.0638 18.0943,-8.6828 25.9839,-13.857 z m -121.5951,26.0656 61.2148,108.6652 -37.2871,21.0054 -45.0112,-79.9015 -15.9799,9.0025 -16.2042,-28.7646 z m 925.22717,14.7273 c 169.29914,0 306.65571,137.3562 306.65571,306.6552 0,169.2989 -306.65571,511.0918 -306.65571,511.0918 h -306.65517 c -56.2201,0 -102.2185,45.9986 -102.2185,102.219 0,56.2206 45.9984,102.2191 102.2185,102.2191 h 306.65517 c 168.97964,0 306.65571,137.6751 306.65571,306.6552 0,168.979 -137.67607,306.6552 -306.65571,306.6552 h -887.38347 c 43.1233,-52.0674 99.9823,-125.218 151.0915,-204.4377 h 736.29197 c 56.22005,0 102.21857,-45.9981 102.21857,-102.2175 0,-56.2204 -45.99852,-102.2191 -102.21857,-102.2191 h -306.65517 c -168.9797,0 -306.6552,-137.6749 -306.6552,-306.6552 0,-168.9802 137.6755,-306.6551 306.6552,-306.6551 h 144.70276 c -73.7888,-104.1347 -144.70276,-225.2002 -144.70276,-306.6557 0,-169.299 137.35606,-306.6552 306.65517,-306.6552 z m -995.23277,17.7307 34.787,134.0951 -39.9582,28.2061 -114.7036,-77.6837 36.9615,-26.0904 73.7464,55.7067 -27.7946,-88.1434 z m -140.6829,111.3684 c 0.5853,-0.01 1.1729,-4e-4 1.7632,0.023 9.446,0.369 17.9327,4.6233 25.46,12.7625 l 64.7568,70.0216 -27.8294,25.7369 -10.0975,-7.3168 c -2.1942,8.9132 -5.4534,17.0347 -9.7777,24.3649 -4.3154,7.0998 -8.5079,12.5315 -12.5776,16.2951 l -6.2838,5.8115 c -8.1393,7.5273 -16.9324,11.1064 -26.3782,10.7374 -9.446,-0.369 -17.9328,-4.6233 -25.46,-12.7626 l -7.4719,-8.079 c -7.5272,-8.1393 -11.1063,-16.9323 -10.7373,-26.3783 0.369,-9.446 4.6232,-17.9327 12.7625,-25.4599 l 36.8066,-34.0383 -6.642,-7.1819 c -1.6604,-1.7955 -3.6425,-2.7383 -5.9464,-2.8283 -2.3039,-0.09 -4.3536,0.6955 -6.149,2.3559 -7.7802,7.1952 -16.0662,15.5241 -24.8579,24.9871 -8.6721,9.3524 -15.7146,16.8647 -21.1279,22.5372 l -20.7554,-22.4426 c 19.6904,-22.651 38.3332,-42.113 55.9284,-58.3851 7.6306,-7.0567 15.8355,-10.6433 24.6145,-10.76 z m 25.691,74.1603 -26.0341,24.0761 c -1.7954,1.6603 -2.7377,3.6425 -2.8277,5.9464 -0.09,2.3039 0.695,4.3535 2.3554,6.1489 l 1.6603,1.7958 c 1.6605,1.7954 3.6426,2.7382 5.9465,2.8282 2.3039,0.09 4.3535,-0.6955 6.1489,-2.3559 l 4.4886,-4.1512 c 6.3439,-5.8667 12.4186,-13.7054 18.2243,-23.5158 z m 1110.22467,1.1772 c -56.53951,0 -102.21861,45.6794 -102.21861,102.2186 0,56.5392 45.6791,102.219 102.21861,102.219 56.53955,0 102.21857,-45.6798 102.21857,-102.219 0,-56.5392 -45.67902,-102.2186 -102.21857,-102.2186 z m -1287.48007,3.3037 133.5557,107.087 -29.0664,36.251 -116.8492,-18.4619 80.1336,64.2524 -27.5368,34.3426 -133.5557,-107.087 29.0664,-36.251 116.8492,18.4619 -80.1336,-64.2524 z m -81.8136,174.4632 28.436,16.7737 20.5972,90.2296 34.1685,-57.9251 28.436,16.7736 -61.5038,104.2655 -28.436,-16.7737 -20.5966,-90.2301 -34.1685,57.9251 -28.436,-16.7736 z m -113.7987,112.698 31.0296,14.4689 -18.0857,38.7873 -31.0296,-14.4689 z m 44.3286,20.6696 113.037,52.7074 -18.0863,38.7873 -83.1153,-38.7553 -7.7509,16.6228 -29.9217,-13.9516 z m -62.1094,82.1743 c 5.8128,-0.05 12.2402,1.0919 19.282,3.4246 9.2858,3.076 16.2026,7.6003 20.7507,13.5723 4.3933,5.9207 6.7766,12.2062 7.1499,18.8562 7.5575,-11.408 18.7343,-17.1518 33.5308,-17.231 5.3103,0.042 11.1383,1.1134 17.4837,3.2153 15.1669,5.0242 25.1308,12.2753 29.8917,21.7527 4.7608,9.4774 4.6294,21.8 -0.3948,36.9667 l -33.0678,99.8229 -162.5022,-53.8308 30.7604,-92.8585 c 5.0242,-15.1667 12.1975,-25.1565 21.5201,-29.9687 4.584,-2.4317 9.7826,-3.6722 15.5955,-3.7217 z m 3.7005,45.6008 c -5.8,0.011 -9.854,3.4986 -12.161,10.463 l -13.0731,39.4647 32.5009,10.7663 13.0731,-39.4648 c 3.076,-9.2858 -0.029,-15.467 -9.3147,-18.543 l -4.6431,-1.5379 c -2.3215,-0.769 -4.4487,-1.1519 -6.3821,-1.1483 z m 67.3081,14.5681 c -5.8001,0.011 -9.854,3.4986 -12.1611,10.463 l -15.3799,46.4292 32.5003,10.7662 15.3805,-46.4297 c 3.076,-9.2858 -0.029,-15.4665 -9.3147,-18.5425 l -4.6431,-1.5379 c -2.3215,-0.769 -4.4487,-1.1519 -6.382,-1.1483 z m 407.68,159.8327 c 169.2992,0 306.6557,137.3567 306.6557,306.6557 0,169.3002 -306.6557,511.0928 -306.6557,511.0928 0,0 -306.6552,-341.7926 -306.6552,-511.0928 0,-169.299 137.356,-306.6557 306.6552,-306.6557 z m 0,204.4381 c -56.5395,0 -102.2181,45.6784 -102.2181,102.2176 0,56.5404 45.6786,102.2185 102.2181,102.2185 56.5395,0 102.2185,-45.6781 102.2185,-102.2185 0,-56.5392 -45.679,-102.2176 -102.2185,-102.2176 z" /></g></svg>
